<?xml version="1.0" encoding="utf-8"?>
<!-- Generator: Adobe Illustrator 23.0.3, SVG Export Plug-In . SVG Version: 6.00 Build 0)  -->
<svg version="1.1" id="Layer_1" xmlns="http://www.w3.org/2000/svg" xmlns:xlink="http://www.w3.org/1999/xlink" x="0px" y="0px"
	 viewBox="0 0 1200 1200" enable-background="new 0 0 1200 1200" xml:space="preserve">
<g>
	<path fill="#FFBBBB" d="M548.22,121.627c-0.08-0.619-0.148-1.137-0.2-1.535c0.31-6.577,17.026-15.964,43.122-15.964
		c26.236,0,43.005,9.491,43.138,16.072c-0.009,0.111-0.016,0.217-0.025,0.327c-0.402,6.578-17.091,15.912-43.113,15.912
		C566.544,136.439,550.269,128.097,548.22,121.627z"/>
	<path fill="#5C94CC" d="M666.356,475.548c-0.356,0.06-0.714,0.108-1.074,0.108c-1.568,0-3.14-0.573-4.377-1.722
		c-13.652-12.724-49.386-46.096-28.142-333.898c-10.091,5.735-24.734,9.246-41.622,9.246c-16.322,0-30.564-3.273-40.612-8.669
		c7.89,68.448,28.026,279.265-16.781,326.654c-0.372,0.394-0.789,0.712-1.226,0.99c2.914,23.324,5.977,52.729,8.977,84.898
		c11.279-11.961,33.808-31.256,61.958-31.487c0.171,0,0.343,0,0.514,0c19.256,0,37.666,8.871,54.831,26.338
		C661.322,521.178,663.882,496.372,666.356,475.548z M566.435,205.902c2.563-2.433,6.614-2.333,9.055,0.213
		c0.167,0.171,7.098,7.149,15.961,7.236c0.054,0,0.109,0,0.163,0c5.23,0,10.376-2.471,15.292-7.353
		c2.521-2.496,6.58-2.475,9.084,0.038c2.496,2.521,2.479,6.584-0.038,9.084c-7.412,7.349-15.593,11.074-24.322,11.074
		c-0.155,0-0.309,0-0.464-0.004c-14.377-0.217-24.544-10.761-24.97-11.212C563.755,212.406,563.859,208.343,566.435,205.902z
		 M618.653,254.675c-7.412,7.353-15.589,11.078-24.318,11.078c-0.155,0-0.309,0-0.464,0c-14.372-0.217-24.544-10.765-24.97-11.216
		c-2.441-2.571-2.337-6.634,0.238-9.076c2.558-2.433,6.614-2.341,9.055,0.217c0.176,0.176,7.103,7.149,15.961,7.232
		c5.104-0.013,10.485-2.42,15.451-7.349c2.521-2.504,6.584-2.487,9.08,0.033C621.186,248.112,621.17,252.18,618.653,254.675z"/>
	<path fill="#E24058" d="M972.188,505.065c54.894,123.42,183.247,412.003,162.822,513.552c-0.297,0.702-0.518,1.421-0.727,2.09
		c-10.69,34.159-54.969,107.798-235.123,54.38l-0.176-0.075c-1.3-0.652-3.491-1.384-9.577-3.395
		c-152.634-50.362-234.797-121.033-237.615-204.375c-0.355-10.539-0.456-19.163-0.318-27.136
		c0.89-51.765,12.046-212.543,23.032-320.83c10.339-0.071,71.376,1.303,96.986,38.409c16.279,23.586,15.288,57.544-2.951,100.934
		c-0.063,0.15-0.121,0.305-0.176,0.46c-14.867,44.725-18.008,77.498-16.531,101.906c0.007,0.067-0.003,0.132,0.005,0.199
		c0.001,0.005,0.006,0.053,0.008,0.065c0.189,3.056,0.43,6.019,0.751,8.817c1.359,21.885,1.486,77.412-31.013,87.094
		c-3.399,1.012-5.334,4.586-4.323,7.985c0.832,2.788,3.386,4.59,6.149,4.59c0.61,0,1.225-0.084,1.835-0.268
		c24.694-7.356,34.769-32.632,38.568-57.107c2.853,6.31,6.274,12.621,10.39,18.873c10.393,15.777,26.057,48.54,14.193,90.712
		c-0.957,3.415,1.028,6.961,4.444,7.922c0.581,0.163,1.166,0.238,1.743,0.238c2.805,0,5.38-1.852,6.179-4.682
		c13.24-47.085-4.235-83.651-15.831-101.251c-6.459-9.816-11.212-19.711-14.134-29.422c-2.103-6.984-4.157-15.435-5.369-25.73
		c-0.285-4.392-0.62-7.542-0.776-8.867c-1.383-22.95,1.622-53.996,15.823-96.788c11.675-27.84,16.649-52.375,15.024-73.45
		c4.953,1.835,11.421,5.445,16.94,12.603c12.052,15.635,14.728,42.369,7.742,77.318c-0.903,4.507-2.132,8.93-3.432,13.612
		l-1.405,5.075c-1.956,6.843-7.914,27.683,2.897,45.149c6.956,11.237,19.318,18.574,36.738,21.81
		c2.626,0.488,4.979,1.001,7.181,1.563c6.195,8.748,23.534,38.244-1.708,65.395c-2.416,2.596-2.266,6.659,0.33,9.076
		c1.237,1.15,2.805,1.718,4.373,1.718c1.722,0,3.436-0.69,4.703-2.048c21.529-23.158,18.794-49.199,10.737-67.662
		c21.464,8.798,54.074,26.823,55.298,63.503c0.117,3.474,2.964,6.208,6.413,6.208c0.071,0,0.146,0,0.217-0.004
		c3.545-0.117,6.321-3.085,6.204-6.63c-1.777-53.205-57.331-73.092-75.842-79.718c-1.059-0.379-2.149-0.738-3.269-1.083
		c-1.634-1.597-3.932-2.167-6.053-1.62c-1.958-0.463-3.995-0.907-6.234-1.323c-13.716-2.55-23.193-7.914-28.168-15.944
		c-7.822-12.638-3.039-29.364-1.471-34.861l1.434-5.167c1.304-4.699,2.655-9.557,3.65-14.527
		c7.893-39.472,4.394-69.074-10.401-87.982c-5.861-7.491-12.587-12.061-18.511-14.841c25.176-16.766,32.795-32.571,32.804-45.605
		c3.543-24.125,11.59-40.017,23.311-45.931c13.62-6.885,28.929,1.129,29.205,1.283c3.11,1.681,7.002,0.548,8.7-2.558
		c1.706-3.11,0.564-7.011-2.546-8.716c-0.861-0.472-21.266-11.409-41.015-1.543c-10.866,5.433-19.068,15.892-24.533,31.186
		c-0.663-3.427-0.966-6.825-0.834-10.167c1.112-28.122,8.833-40.718,15.112-46.336c6.509-5.823,12.842-5.535,13.248-5.485
		c3.436,0.33,6.605-2.228,6.969-5.731c0.368-3.528-2.195-6.685-5.723-7.052c-1.196-0.105-11.944-0.941-22.596,8.29
		c-12.119,10.497-18.795,29.272-19.845,55.809c-0.355,9.076,1.534,18.331,5.619,27.508c6.788,15.231-3.175,31.101-29.526,47.244
		c-2.297-7.697-5.657-14.827-10.151-21.337c-28.453-41.229-91.016-43.952-106.224-43.967c1.929-18.271,3.84-34.77,5.675-48.497
		c1.71-6.325,27.437-97.447,89.634-112.978c42.474-10.589,93.108,15.882,150.489,78.727c18.607,20.38,33.837,43.766,45.271,69.513
		L972.188,505.065z M429.942,569.528c-16.258,23.582-15.255,57.532,2.977,100.9c0.063,0.151,0.121,0.305,0.176,0.46
		c14.896,44.806,18.022,77.621,16.523,102.044c-0.002,0.019,0.001,0.038-0.001,0.056c0,0.002-0.002,0.018-0.002,0.02
		c-0.188,3.044-0.424,6-0.743,8.788c-1.347,21.84-1.478,77.496,31.004,87.171c3.399,1.012,5.334,4.586,4.323,7.985
		c-0.828,2.788-3.386,4.59-6.15,4.59c-0.61,0-1.225-0.084-1.835-0.268c-24.696-7.356-34.771-32.635-38.57-57.111
		c-2.853,6.31-6.275,12.621-10.392,18.872c-10.393,15.786-26.053,48.556-14.193,90.716c0.957,3.415-1.028,6.961-4.444,7.922
		c-0.581,0.163-1.166,0.238-1.743,0.238c-2.805,0-5.38-1.852-6.179-4.682c-13.24-47.072,4.239-83.643,15.832-101.255
		c6.459-9.812,11.212-19.707,14.134-29.418c2.104-6.986,4.158-15.441,5.37-25.738c0.285-4.392,0.62-7.538,0.775-8.862
		c1.383-22.95-1.621-53.997-15.819-96.784c-11.674-27.839-16.649-52.373-15.026-73.448c-4.947,1.834-11.419,5.444-16.942,12.605
		c-12.052,15.631-14.728,42.365-7.738,77.318c0.907,4.536,2.145,8.988,3.457,13.699l1.384,4.992
		c1.952,6.848,7.905,27.687-2.91,45.145c-6.956,11.233-19.318,18.57-36.734,21.805c-2.635,0.49-4.996,1.004-7.175,1.559
		c-6.195,8.741-23.547,38.242,1.703,65.399c2.416,2.596,2.266,6.659-0.33,9.076c-1.237,1.15-2.805,1.718-4.373,1.718
		c-1.722,0-3.436-0.69-4.703-2.048c-21.525-23.154-18.795-49.191-10.741-67.653c-21.609,8.872-54.069,26.899-55.29,63.493
		c-0.117,3.474-2.964,6.208-6.413,6.208c-0.071,0-0.146,0-0.217-0.004c-3.545-0.117-6.321-3.085-6.204-6.63
		c1.773-53.205,57.327-73.092,75.583-79.626c1.156-0.414,2.326-0.802,3.521-1.171c1.641-1.602,3.952-2.178,6.077-1.627
		c1.959-0.464,3.988-0.907,6.212-1.32c13.716-2.55,23.193-7.914,28.164-15.94c7.826-12.633,3.048-29.364,1.48-34.857l-1.409-5.075
		c-1.317-4.732-2.676-9.623-3.675-14.628c-7.893-39.472-4.398-69.074,10.397-87.982c5.861-7.491,12.592-12.057,18.515-14.841
		c-25.167-16.76-32.79-32.56-32.806-45.59c-3.551-24.195-11.627-40.109-23.397-45.992c-13.804-6.906-28.95,1.233-29.105,1.317
		c-3.102,1.697-7.011,0.569-8.716-2.546c-1.706-3.11-0.564-7.011,2.546-8.716c0.857-0.472,21.258-11.413,41.015-1.543
		c10.87,5.434,19.071,15.896,24.536,31.192c0.664-3.428,0.965-6.828,0.831-10.172c-1.112-28.118-8.829-40.718-15.108-46.332
		c-6.593-5.89-13.001-5.514-13.26-5.485c-3.553,0.272-6.605-2.345-6.91-5.836c-0.309-3.495,2.191-6.584,5.677-6.948
		c1.191-0.104,11.935-0.941,22.591,8.29c12.119,10.493,18.795,29.268,19.845,55.801c0.36,9.08-1.53,18.336-5.619,27.512
		c-6.787,15.226,3.178,31.103,29.527,47.246c2.297-7.699,5.656-14.831,10.15-21.344c28.198-40.849,89.889-43.867,105.803-43.953
		c-2.277-22.255-4.543-42.245-6.704-58.411c-1.714-6.317-27.541-97.506-89.667-112.99c-42.478-10.577-93.091,15.911-150.46,78.739
		c-18.599,20.371-33.828,43.757-45.27,69.513l-5.297,11.906C172.913,630.413,44.568,918.975,64.99,1020.519
		c0.297,0.707,0.518,1.421,0.732,2.094c10.689,34.155,55.015,107.785,235.106,54.384l0.176-0.075
		c1.296-0.652,3.474-1.384,9.582-3.395c152.642-50.358,234.809-121.033,237.627-204.384c0.355-10.535,0.456-19.159,0.318-27.131
		c-0.863-50.215-11.386-202.965-22.041-310.911C514.815,531.136,455.103,533.017,429.942,569.528z"/>
	<path fill="#96002B" d="M978.643,487.976c-11.994-27.01-27.984-51.558-47.528-72.962c-60.805-66.595-115.687-94.374-163.081-82.523
		c-71.465,17.842-97.965,118.32-99.057,122.589c-0.063,0.242-0.109,0.489-0.142,0.74c-0.297,2.213-0.597,4.567-0.898,6.918
		c-29.407-31.466-36.428-146.419-20.824-341.946c0.006-0.077-0.008-0.152-0.005-0.23c0.002-0.094,0.026-0.185,0.026-0.28
		c0-0.149-0.036-0.293-0.04-0.441c-0.012-0.18-0.022-0.357-0.049-0.533c-0.936-16.037-24.62-28.022-55.905-28.022
		c-31.416,0-55.176,12.084-55.923,28.222c-0.021,0.176-0.042,0.349-0.048,0.528c-0.001,0.083-0.022,0.162-0.022,0.246
		c0,0.178,0.042,0.348,0.048,0.525c0.009,0.109-0.004,0.214,0.011,0.324c0.02,0.15,0.041,0.312,0.061,0.465
		c0.059,0.746,0.136,1.488,0.292,2.217c10.17,77.742,26.931,273.575-6.053,327.824c-6.533-21.705-34.578-101.524-97.537-117.243
		c-47.39-11.818-102.276,15.932-163.085,82.527c-19.535,21.396-35.526,45.939-47.528,72.958l-5.288,11.902
		C155.819,637.24,30.45,919.109,52.59,1023.985c0.134,0.631,0.355,1.225,0.656,1.768c0.063,0.201,0.134,0.431,0.217,0.694
		c8.942,28.574,38.623,82.268,135.18,82.268c31.22,0,69.442-5.619,116.201-19.515c0.238-0.071,0.468-0.155,0.698-0.251l0.761-0.326
		c0.251-0.109,0.192-0.071,0.426-0.209c0.773-0.351,4.222-1.488,7.876-2.692c199.877-65.943,244.337-153.938,246.44-216.144
		c0.364-10.761,0.468-19.59,0.326-27.788c-0.77-44.682-9.153-170.206-18.495-273.619c1.63-0.135,3.211-0.855,4.357-2.193
		c8.022-9.389,29.569-31.253,56.328-31.471c0.134,0,0.268,0,0.397,0c17.311,0,34.213,9.205,50.249,27.37
		c0.863,0.977,1.962,1.624,3.136,1.94c-9.43,103.875-17.94,231.04-18.713,276.067c-0.142,8.198-0.038,17.027,0.326,27.792
		c2.103,62.201,46.558,150.188,246.427,216.139c3.658,1.204,7.111,2.345,7.583,2.533c0.242,0.146,0.497,0.272,0.761,0.385
		l0.761,0.322c0.217,0.092,0.443,0.171,0.669,0.238c46.771,13.9,84.985,19.515,116.209,19.515
		c96.544,0,126.234-53.694,135.172-82.268c0.079-0.263,0.151-0.493,0.213-0.69c0.301-0.548,0.523-1.141,0.656-1.768
		c22.144-104.88-103.233-386.766-163.486-522.234L978.643,487.976z M548.22,121.627c-0.08-0.619-0.148-1.137-0.2-1.535
		c0.31-6.577,17.026-15.964,43.122-15.964c26.236,0,43.005,9.491,43.138,16.072c-0.009,0.111-0.016,0.217-0.025,0.327
		c-0.402,6.578-17.091,15.912-43.113,15.912C566.544,136.439,550.269,128.097,548.22,121.627z M548.529,842.012
		c0.138,7.972,0.038,16.597-0.318,27.131c-2.818,83.35-84.985,154.026-237.627,204.384c-6.108,2.011-8.286,2.742-9.582,3.395
		l-0.176,0.075c-180.091,53.401-224.417-20.229-235.106-54.384c-0.213-0.673-0.435-1.388-0.732-2.094
		C44.568,918.975,172.913,630.413,227.799,507.001l5.297-11.906c11.442-25.756,26.671-49.142,45.27-69.513
		c57.369-62.828,107.982-89.316,150.46-78.739c62.126,15.484,87.953,106.673,89.667,112.99c2.161,16.166,4.427,36.156,6.704,58.411
		c-15.914,0.086-77.605,3.104-105.803,43.953c-4.494,6.512-7.854,13.644-10.15,21.344c-26.349-16.143-36.314-32.019-29.527-47.246
		c4.089-9.176,5.978-18.432,5.619-27.512c-1.049-26.534-7.726-45.308-19.845-55.801c-10.656-9.23-21.4-8.394-22.591-8.29
		c-3.487,0.364-5.986,3.453-5.677,6.948c0.305,3.491,3.357,6.108,6.91,5.836c0.259-0.029,6.668-0.406,13.26,5.485
		c6.279,5.614,13.996,18.214,15.108,46.332c0.134,3.344-0.167,6.744-0.831,10.172c-5.465-15.295-13.666-25.758-24.536-31.192
		c-19.757-9.87-40.158,1.07-41.015,1.543c-3.11,1.706-4.252,5.606-2.546,8.716c1.706,3.114,5.614,4.243,8.716,2.546
		c0.155-0.084,15.301-8.223,29.105-1.317c11.77,5.883,19.846,21.797,23.397,45.992c0.016,13.031,7.638,28.831,32.806,45.59
		c-5.924,2.784-12.654,7.349-18.515,14.841c-14.795,18.908-18.29,48.51-10.397,87.982c0.999,5.004,2.358,9.895,3.675,14.628
		l1.409,5.075c1.568,5.493,6.346,22.223-1.48,34.857c-4.971,8.026-14.448,13.39-28.164,15.94c-2.224,0.413-4.254,0.856-6.212,1.32
		c-2.125-0.551-4.437,0.025-6.077,1.627c-1.195,0.369-2.365,0.757-3.521,1.171c-18.256,6.534-73.811,26.421-75.583,79.626
		c-0.117,3.545,2.659,6.513,6.204,6.63c0.071,0.004,0.146,0.004,0.217,0.004c3.449,0,6.296-2.734,6.413-6.208
		c1.221-36.594,33.681-54.621,55.29-63.493c-8.054,18.462-10.784,44.499,10.741,67.653c1.267,1.359,2.981,2.048,4.703,2.048
		c1.568,0,3.135-0.569,4.373-1.718c2.596-2.416,2.747-6.48,0.33-9.076c-25.25-27.157-7.898-56.658-1.703-65.399
		c2.179-0.555,4.54-1.069,7.175-1.559c17.416-3.236,29.778-10.572,36.734-21.805c10.815-17.458,4.862-38.297,2.91-45.145
		l-1.384-4.992c-1.313-4.711-2.55-9.164-3.457-13.699c-6.99-34.953-4.314-61.687,7.738-77.318
		c5.523-7.161,11.995-10.771,16.942-12.605c-1.623,21.075,3.352,45.609,15.026,73.448c14.197,42.787,17.202,73.835,15.819,96.784
		c-0.156,1.323-0.49,4.47-0.775,8.862c-1.212,10.298-3.266,18.753-5.37,25.738c-2.922,9.711-7.675,19.606-14.134,29.418
		c-11.592,17.612-29.071,54.183-15.832,101.255c0.798,2.83,3.374,4.682,6.179,4.682c0.577,0,1.162-0.075,1.743-0.238
		c3.415-0.961,5.401-4.507,4.444-7.922c-11.86-42.16,3.8-74.931,14.193-90.716c4.117-6.251,7.538-12.561,10.392-18.872
		c3.799,24.476,13.875,49.755,38.57,57.111c0.61,0.184,1.225,0.268,1.835,0.268c2.763,0,5.322-1.802,6.15-4.59
		c1.012-3.399-0.924-6.973-4.323-7.985c-32.482-9.676-32.35-65.332-31.004-87.171c0.319-2.788,0.555-5.744,0.743-8.788
		c0-0.002,0.002-0.018,0.002-0.02c0.002-0.019-0.001-0.038,0.001-0.056c1.499-24.422-1.627-57.237-16.523-102.044
		c-0.054-0.155-0.113-0.309-0.176-0.46c-18.231-43.368-19.234-77.318-2.977-100.9c25.162-36.511,84.873-38.393,96.547-38.427
		C537.143,639.048,547.666,791.797,548.529,842.012z M603.971,521.666c-0.171,0-0.343,0-0.514,0
		c-28.15,0.231-50.679,19.526-61.958,31.487c-3-32.169-6.063-61.574-8.977-84.898c0.437-0.278,0.854-0.596,1.226-0.99
		c44.808-47.389,24.671-258.206,16.781-326.654c10.049,5.396,24.29,8.669,40.612,8.669c16.888,0,31.53-3.512,41.622-9.246
		c-21.243,287.802,14.49,321.174,28.142,333.898c1.237,1.15,2.809,1.722,4.377,1.722c0.36,0,0.718-0.048,1.074-0.108
		c-2.474,20.824-5.034,45.63-7.554,72.456C641.637,530.537,623.227,521.666,603.971,521.666z M1135.01,1018.617
		c-0.297,0.702-0.518,1.421-0.727,2.09c-10.69,34.159-54.969,107.798-235.123,54.38l-0.176-0.075
		c-1.3-0.652-3.491-1.384-9.577-3.395c-152.634-50.362-234.797-121.033-237.615-204.375c-0.355-10.539-0.456-19.163-0.318-27.136
		c0.89-51.765,12.046-212.543,23.032-320.83c10.339-0.071,71.376,1.303,96.986,38.409c16.279,23.586,15.288,57.544-2.951,100.934
		c-0.063,0.15-0.121,0.305-0.176,0.46c-14.867,44.725-18.008,77.498-16.531,101.906c0.007,0.067-0.003,0.132,0.005,0.199
		c0.001,0.005,0.006,0.053,0.008,0.065c0.189,3.056,0.43,6.019,0.751,8.817c1.359,21.885,1.486,77.412-31.013,87.094
		c-3.399,1.012-5.334,4.586-4.323,7.985c0.832,2.788,3.386,4.59,6.149,4.59c0.61,0,1.225-0.084,1.835-0.268
		c24.694-7.356,34.769-32.632,38.568-57.107c2.853,6.31,6.274,12.621,10.39,18.873c10.393,15.777,26.057,48.54,14.193,90.712
		c-0.957,3.415,1.028,6.961,4.444,7.922c0.581,0.163,1.166,0.238,1.743,0.238c2.805,0,5.38-1.852,6.179-4.682
		c13.24-47.085-4.235-83.651-15.831-101.251c-6.459-9.816-11.212-19.711-14.134-29.422c-2.103-6.984-4.157-15.435-5.369-25.73
		c-0.285-4.392-0.62-7.542-0.776-8.867c-1.383-22.95,1.622-53.996,15.823-96.788c11.675-27.84,16.649-52.375,15.024-73.45
		c4.953,1.835,11.421,5.445,16.94,12.603c12.052,15.635,14.728,42.369,7.742,77.318c-0.903,4.507-2.132,8.93-3.432,13.612
		l-1.405,5.075c-1.956,6.843-7.914,27.683,2.897,45.149c6.956,11.237,19.318,18.574,36.738,21.81
		c2.626,0.488,4.979,1.001,7.181,1.563c6.195,8.748,23.534,38.244-1.708,65.395c-2.416,2.596-2.266,6.659,0.33,9.076
		c1.237,1.15,2.805,1.718,4.373,1.718c1.722,0,3.436-0.69,4.703-2.048c21.529-23.158,18.794-49.199,10.737-67.662
		c21.464,8.798,54.074,26.823,55.298,63.503c0.117,3.474,2.964,6.208,6.413,6.208c0.071,0,0.146,0,0.217-0.004
		c3.545-0.117,6.321-3.085,6.204-6.63c-1.777-53.205-57.331-73.092-75.842-79.718c-1.059-0.379-2.149-0.738-3.269-1.083
		c-1.634-1.597-3.932-2.167-6.053-1.62c-1.958-0.463-3.995-0.907-6.234-1.323c-13.716-2.55-23.193-7.914-28.168-15.944
		c-7.822-12.638-3.039-29.364-1.471-34.861l1.434-5.167c1.304-4.699,2.655-9.557,3.65-14.527
		c7.893-39.472,4.394-69.074-10.401-87.982c-5.861-7.491-12.587-12.061-18.511-14.841c25.176-16.766,32.795-32.571,32.804-45.605
		c3.543-24.125,11.59-40.017,23.311-45.931c13.62-6.885,28.929,1.129,29.205,1.283c3.11,1.681,7.002,0.548,8.7-2.558
		c1.706-3.11,0.564-7.011-2.546-8.716c-0.861-0.472-21.266-11.409-41.015-1.543c-10.866,5.433-19.068,15.892-24.533,31.186
		c-0.663-3.427-0.966-6.825-0.834-10.167c1.112-28.122,8.833-40.718,15.112-46.336c6.509-5.823,12.842-5.535,13.248-5.485
		c3.436,0.33,6.605-2.228,6.969-5.731c0.368-3.528-2.195-6.685-5.723-7.052c-1.196-0.105-11.944-0.941-22.596,8.29
		c-12.119,10.497-18.795,29.272-19.845,55.809c-0.355,9.076,1.534,18.331,5.619,27.508c6.788,15.231-3.175,31.101-29.526,47.244
		c-2.297-7.697-5.657-14.827-10.151-21.337c-28.453-41.229-91.016-43.952-106.224-43.967c1.929-18.271,3.84-34.77,5.675-48.497
		c1.71-6.325,27.437-97.447,89.634-112.978c42.474-10.589,93.108,15.882,150.489,78.727c18.607,20.38,33.837,43.766,45.271,69.513
		l5.284,11.877C1027.082,628.486,1155.435,917.069,1135.01,1018.617z M618.686,245.595c2.5,2.517,2.483,6.584-0.033,9.08
		c-7.412,7.353-15.589,11.078-24.318,11.078c-0.155,0-0.309,0-0.464,0c-14.372-0.217-24.544-10.765-24.97-11.216
		c-2.441-2.571-2.337-6.634,0.238-9.076c2.558-2.433,6.614-2.341,9.055,0.217c0.176,0.176,7.103,7.149,15.961,7.232
		c5.104-0.013,10.485-2.42,15.451-7.349C612.127,243.058,616.191,243.074,618.686,245.595z M591.166,226.189
		c-14.377-0.217-24.544-10.761-24.97-11.212c-2.441-2.571-2.337-6.634,0.238-9.076c2.563-2.433,6.614-2.333,9.055,0.213
		c0.167,0.171,7.098,7.149,15.961,7.236c0.054,0,0.109,0,0.163,0c5.23,0,10.376-2.471,15.292-7.353
		c2.521-2.496,6.58-2.475,9.084,0.038c2.496,2.521,2.479,6.584-0.038,9.084c-7.412,7.349-15.593,11.074-24.322,11.074
		C591.476,226.194,591.321,226.194,591.166,226.189z"/>
</g>
</svg>
